<svg width="94" height="77" viewBox="0 0 94 77" fill="none" xmlns="http://www.w3.org/2000/svg">
<path d="M67.5525 54.6207H50.0417H48.8574L54.1868 62.6195L72.9665 61.4282L67.5525 54.6207Z" fill="white" stroke="white" stroke-width="0.990118"/>
<path d="M77.5645 1.99663C77.5671 2.06196 77.57 2.13634 77.5713 2.22221C77.5106 2.15115 77.4417 2.08175 77.3633 2.01518C77.3521 2.0057 77.3394 1.99793 77.3281 1.98882C77.4192 1.99061 77.497 1.99306 77.5645 1.99663ZM28.1367 2.01518C28.0589 2.08127 27.991 2.15071 27.9307 2.22124C27.9325 2.13398 27.934 2.05901 27.9375 1.9937C28.0052 1.99105 28.0828 1.98811 28.1729 1.98686C28.1611 1.99636 28.1484 2.00529 28.1367 2.01518Z" fill="#002D84" stroke="#003183" stroke-width="2.97035"/>
<rect width="2.11262" height="23.3735" rx="1.05631" transform="matrix(1 -0.000714688 0.0007063 1 80.9678 27.422)" fill="white"/>
<rect width="2.11262" height="2.03924" rx="1.01962" transform="matrix(1 -0.000714688 0.0007063 1 80.9756 23.8781)" fill="white"/>
<path fill-rule="evenodd" clip-rule="evenodd" d="M21.1631 42.8364V14.123C21.1631 13.0293 22.0497 12.1427 23.1433 12.1427H45.0866C45.842 12.1427 46.569 12.4305 47.1197 12.9476L52.7874 18.2687C53.3381 18.7858 54.0651 19.0736 54.8205 19.0736H84.146C85.2397 19.0736 86.1263 19.9602 86.1263 21.0538V66.5992L23.1317 65.114L21.1631 42.8364ZM52.6606 46.7964C56.4658 46.7964 59.5506 43.6933 59.5506 39.8656C59.5506 36.0378 56.4658 32.9347 52.6606 32.9347C48.8553 32.9347 45.7705 36.0378 45.7705 39.8656C45.7705 43.6933 48.8553 46.7964 52.6606 46.7964Z" fill="url(#paint0_linear_176_37857)"/>
<path d="M64.5405 42.8355H4.29826C2.60763 42.8355 1.6945 44.8175 2.79312 46.1025L19.9999 66.2289C20.7389 67.0932 21.8137 67.5982 22.9507 67.6153L82.8998 68.5154C84.5756 68.5405 85.5229 66.6024 84.4736 65.2955L67.6286 44.3164C66.8769 43.3802 65.7411 42.8355 64.5405 42.8355Z" fill="url(#paint1_linear_176_37857)"/>
<path d="M54.0339 61.9026L49.5327 56.3298C49.0097 55.6823 49.4706 54.7176 50.303 54.7176H66.9702C67.5685 54.7176 68.1348 54.9881 68.5107 55.4535L73.0119 61.0263C73.5349 61.6738 73.0741 62.6385 72.2417 62.6385H55.5744C54.9761 62.6385 54.4099 62.368 54.0339 61.9026Z" fill="url(#paint2_linear_176_37857)"/>
<rect x="39.8633" y="56.6972" width="4.92145" height="1.98024" rx="0.990118" fill="url(#paint3_linear_176_37857)"/>
<rect x="36.9111" y="59.6678" width="7.87432" height="1.98024" rx="0.990118" fill="url(#paint4_linear_176_37857)"/>
<ellipse cx="83.6651" cy="66.1032" rx="10.335" ry="10.3962" fill="url(#paint5_linear_176_37857)"/>
<line x1="1.48518" y1="-1.48518" x2="9.37895" y2="-1.48518" transform="matrix(-0.705017 -0.709191 0.705017 -0.709191 88.3809 68.831)" stroke="white" stroke-width="2.97035" stroke-linecap="round"/>
<line x1="1.48518" y1="-1.48518" x2="9.37895" y2="-1.48518" transform="matrix(-0.705017 0.709191 -0.705017 -0.709191 86.5029 61.126)" stroke="white" stroke-width="2.97035" stroke-linecap="round"/>
<defs>
<linearGradient id="paint0_linear_176_37857" x1="76.2834" y1="19.0832" x2="49.5024" y2="55.567" gradientUnits="userSpaceOnUse">
<stop stop-color="#5193FF"/>
<stop offset="1" stop-color="#045FF2"/>
</linearGradient>
<linearGradient id="paint1_linear_176_37857" x1="23.1308" y1="66.5983" x2="64.0694" y2="46.985" gradientUnits="userSpaceOnUse">
<stop stop-color="#FFC00E"/>
<stop offset="1" stop-color="#FECE48"/>
</linearGradient>
<linearGradient id="paint2_linear_176_37857" x1="61.2723" y1="54.7176" x2="61.2723" y2="62.6385" gradientUnits="userSpaceOnUse">
<stop stop-color="#176CF7"/>
<stop offset="1" stop-color="#0C36C1"/>
</linearGradient>
<linearGradient id="paint3_linear_176_37857" x1="39.8633" y1="58.6774" x2="44.2978" y2="57.2079" gradientUnits="userSpaceOnUse">
<stop stop-color="#0060FF"/>
<stop offset="1" stop-color="#3581FF"/>
</linearGradient>
<linearGradient id="paint4_linear_176_37857" x1="36.419" y1="62.6381" x2="41.8435" y2="60.187" gradientUnits="userSpaceOnUse">
<stop stop-color="#0060FF"/>
<stop offset="1" stop-color="#3581FF"/>
</linearGradient>
<linearGradient id="paint5_linear_176_37857" x1="90.1245" y1="57.4988" x2="77.3896" y2="74.228" gradientUnits="userSpaceOnUse">
<stop stop-color="#FF4E4E"/>
<stop offset="1" stop-color="#F71717"/>
</linearGradient>
</defs>
</svg>
