<svg width="14" height="14" viewBox="0 0 14 14" fill="none" xmlns="http://www.w3.org/2000/svg">
<path d="M3.81915 13V1.90169L1.35691 4.4056L1.31915 4.4401C1.12409 4.60208 0.833862 4.59306 0.649226 4.41146C0.452571 4.21786 0.449944 3.90126 0.643367 3.70443L3.4448 0.85612L3.4461 0.855469L3.53334 0.77474C3.74633 0.598271 4.01525 0.5 4.29506 0.5C4.30115 0.500001 4.30721 0.501208 4.31329 0.501302C4.31524 0.501278 4.31719 0.500652 4.31915 0.500651C4.33801 0.500651 4.35682 0.502524 4.37514 0.504557C4.62562 0.521498 4.86365 0.615357 5.05613 0.77474L5.14402 0.855469L5.14532 0.85612L8.02357 3.78255L8.05743 3.82096C8.21584 4.01858 8.20201 4.30805 8.01772 4.48958C7.83315 4.67111 7.54285 4.68067 7.34779 4.51888L7.31003 4.48372L4.81915 1.95052V13C4.81911 13.2761 4.59527 13.5 4.31915 13.5C4.04317 13.4998 3.81918 13.276 3.81915 13ZM9.15248 1C9.15252 0.723991 9.3765 0.500169 9.65248 0.5C9.9286 0.5 10.1524 0.723887 10.1525 1V12.0488L12.6434 9.51628L12.6811 9.48112C12.8762 9.31933 13.1665 9.32889 13.351 9.51042C13.5476 9.70406 13.5504 10.0207 13.3569 10.2174L10.4787 13.1439L10.4774 13.1445C10.272 13.3521 9.99868 13.4758 9.70847 13.4954C9.69016 13.4975 9.67134 13.4993 9.65248 13.4993C9.65052 13.4993 9.64858 13.4987 9.64662 13.4987C9.64054 13.4988 9.63448 13.5 9.62839 13.5C9.30865 13.5 9.00367 13.3711 8.77943 13.1445L8.77813 13.1439L5.9767 10.2956L6.69024 9.5944L9.15248 12.0977V1ZM5.98256 9.58854C6.17943 9.39491 6.49661 9.39753 6.69024 9.5944L5.9767 10.2956C5.78328 10.0987 5.78591 9.78214 5.98256 9.58854Z" fill="#555555"/>
</svg>
