<svg width="8" height="14" viewBox="0 0 8 14" fill="none" xmlns="http://www.w3.org/2000/svg">
<path d="M3.48558 1C3.48558 0.723961 3.70958 0.500167 3.98558 0.5C4.26172 0.5 4.48558 0.723858 4.48558 1V12.0488L6.97646 9.51628L7.01422 9.48112C7.20928 9.31931 7.49957 9.32888 7.68414 9.51042C7.88072 9.70407 7.88351 10.0207 7.69 10.2174L4.81175 13.1432L4.81045 13.1445C4.60491 13.3523 4.33136 13.476 4.04092 13.4954C4.02281 13.4974 4.00421 13.4993 3.98558 13.4993C3.98362 13.4993 3.98167 13.4987 3.97972 13.4987C3.97364 13.4988 3.96758 13.5 3.96149 13.5C3.64176 13.5 3.33676 13.3711 3.11253 13.1445L3.11123 13.1432L0.309797 10.2956L0.275943 10.2572C0.117576 10.0595 0.131319 9.77005 0.315656 9.58854C0.500302 9.40693 0.790524 9.39789 0.985578 9.5599L1.02334 9.5944L3.48558 12.0977V1Z" fill="#176CF7"/>
</svg>
