<svg width="16" height="16" viewBox="0 0 16 16" fill="none" xmlns="http://www.w3.org/2000/svg">
<path d="M8.25586 2.50098C9.18922 2.48361 10.0933 2.78755 10.8047 3.35059L10.9443 3.4668C11.6435 4.07533 12.0723 4.91089 12.1514 5.80273L12.1582 5.8877C12.1627 5.96156 12.167 6.03226 12.167 6.10352V6.12402C12.167 6.20564 12.1661 6.25646 12.1611 6.30469L12.1602 6.31445V6.32422C12.1366 6.69212 12.0522 7.05447 11.9111 7.39844L11.9062 7.41113L11.9023 7.42285C11.7414 7.88199 11.5592 8.33426 11.3574 8.77832L11.1494 9.21973L11.1484 9.2207C10.6569 10.2277 10.0528 11.181 9.3457 12.0625L9.03613 12.4355L9.03223 12.4395C8.78699 12.7322 8.52675 13.013 8.25488 13.2832C7.36695 12.2884 6.57816 11.2161 5.90137 10.0791L5.89453 10.0674L5.88672 10.0566L5.66016 9.69922C5.15262 8.85523 4.79884 7.93445 4.61328 6.97656L4.61035 6.96191L4.60645 6.94824L4.55664 6.72266C4.47301 6.27027 4.48231 5.80674 4.58301 5.35742L4.64062 5.13379C4.79393 4.61579 5.06816 4.13685 5.44336 3.7334L5.61035 3.56543C6.27024 2.94368 7.14342 2.56852 8.07031 2.50879L8.25586 2.50098ZM10.459 5.84277C10.4554 5.36186 10.2778 4.9025 9.96484 4.54102L9.82227 4.39258C9.47205 4.061 9.01739 3.86066 8.53809 3.81738L8.33203 3.80859H8.3291C7.91821 3.813 7.51558 3.93325 7.17285 4.15723C6.82986 4.38145 6.55984 4.70074 6.40137 5.07617C6.26275 5.40477 6.21593 5.76235 6.26367 6.11328L6.29004 6.26367C6.37585 6.66164 6.58191 7.0235 6.87891 7.30469C7.13853 7.55045 7.45756 7.72514 7.80371 7.81543L7.9541 7.84961C8.35794 7.92475 8.77635 7.88386 9.15723 7.73145C9.53819 7.57899 9.86673 7.32029 10.0996 6.98535C10.3326 6.65009 10.4591 6.25379 10.459 5.84668V5.84277Z" fill="#176CF7" stroke="#176CF7"/>
</svg>
