<svg width="64" height="76" viewBox="0 0 64 76" fill="none" xmlns="http://www.w3.org/2000/svg">
<g filter="url(#filter0_d_4327_108820)">
<path d="M54.5 25.7484C54.5 41.2054 35.3019 61 32.0003 61C27.4392 61 9.5 41.2033 9.5 25.7484C9.5 22.761 10.082 19.8029 11.2127 17.0428C12.3435 14.2828 14.0009 11.7751 16.0902 9.6627C18.1796 7.5503 20.66 5.87465 23.3898 4.73147C26.1197 3.58828 29.0455 2.99993 32.0003 3C37.9676 3 43.6905 5.39667 47.91 9.66283C52.1295 13.929 54.5 19.7151 54.5 25.7484Z" fill="white"/>
</g>
<path d="M31.8987 58.705C30.3884 58.2786 25.5911 54.3834 20.5777 47.4624C14.9617 39.7089 11.7412 31.7954 11.7412 25.7502C11.7474 20.32 13.8836 15.114 17.6813 11.2743C21.479 7.43461 26.6281 5.27476 31.9989 5.26855C37.3697 5.27476 42.5187 7.43461 46.3164 11.2743C50.1142 15.114 52.2504 20.32 52.2566 25.7502C52.2566 33.6919 46.5952 42.5397 43.2203 47.1059C38.2938 53.7737 33.3991 58.0526 31.8987 58.705Z" fill="#461B02"/>
<path d="M21.7411 27.2804C21.7473 26.9182 21.8257 26.5609 21.9717 26.2287C22.1177 25.8965 22.3285 25.5961 22.5921 25.3445C22.8556 25.0929 23.1668 24.8952 23.5077 24.7626C23.8486 24.63 24.2126 24.5651 24.5789 24.5717C24.9426 24.5658 25.3039 24.6315 25.6417 24.7649C25.9795 24.8984 26.2871 25.0969 26.5466 25.3489C26.8061 25.601 27.0123 25.9015 27.1532 26.2331C27.2942 26.5646 27.367 26.9206 27.3675 27.2802L27.3674 30.0127C27.3796 31.1976 27.8644 32.3298 28.7162 33.1634C29.5681 33.9969 30.7182 34.4645 31.9168 34.4645C33.1154 34.4644 34.2656 33.9968 35.1175 33.1632C35.9694 32.3296 36.4542 31.1974 36.4665 30.0125L36.4666 27.28C36.4728 26.9179 36.5512 26.5606 36.6972 26.2284C36.8432 25.8963 37.054 25.5958 37.3175 25.3443C37.581 25.0927 37.8921 24.895 38.233 24.7623C38.5739 24.6297 38.9378 24.5648 39.3041 24.5713C39.6678 24.5655 40.029 24.6312 40.3668 24.7647C40.7045 24.8981 41.0121 25.0967 41.2715 25.3487C41.531 25.6007 41.7371 25.9013 41.878 26.2328C42.0189 26.5643 42.0917 26.9202 42.0922 27.2798L42.0921 30.0123C42.0276 32.638 40.9273 35.1348 39.026 36.9694C37.1248 38.804 34.5733 39.831 31.9166 39.831C29.2599 39.8311 26.7085 38.8042 24.8073 36.9698C22.9061 35.1353 21.8059 32.6386 21.7416 30.0129L21.7411 27.2804Z" fill="white"/>
<path d="M27.4086 20.515C27.4086 21.0688 27.2423 21.6102 26.9309 22.0706C26.6195 22.5311 26.1769 22.8899 25.6591 23.1019C25.1413 23.3138 24.5716 23.3692 24.0219 23.2612C23.4723 23.1531 22.9674 22.8865 22.5711 22.4949C22.1748 22.1033 21.9049 21.6044 21.7956 21.0613C21.6863 20.5181 21.7424 19.9551 21.9568 19.4435C22.1713 18.9319 22.5345 18.4945 23.0004 18.1868C23.4664 17.8791 24.0143 17.7148 24.5747 17.7148C25.3263 17.7148 26.0471 18.0098 26.5785 18.535C27.11 19.0601 27.4086 19.7724 27.4086 20.515Z" fill="white"/>
<path d="M42.0776 20.3471C42.0775 20.9009 41.9113 21.4422 41.5999 21.9027C41.2885 22.3631 40.8459 22.722 40.3281 22.9339C39.8103 23.1458 39.2405 23.2013 38.6909 23.0932C38.1412 22.9852 37.6363 22.7185 37.24 22.3269C36.8437 21.9354 36.5739 21.4365 36.4645 20.8933C36.3552 20.3502 36.4113 19.7872 36.6258 19.2755C36.8402 18.7639 37.2034 18.3266 37.6694 18.0188C38.1354 17.7111 38.6832 17.5469 39.2437 17.5468C39.9953 17.5468 40.716 17.8419 41.2475 18.367C41.7789 18.8922 42.0775 19.6044 42.0776 20.3471Z" fill="white"/>
<defs>
<filter id="filter0_d_4327_108820" x="0.5" y="0" width="63" height="76" filterUnits="userSpaceOnUse" color-interpolation-filters="sRGB">
<feFlood flood-opacity="0" result="BackgroundImageFix"/>
<feColorMatrix in="SourceAlpha" type="matrix" values="0 0 0 0 0 0 0 0 0 0 0 0 0 0 0 0 0 0 127 0" result="hardAlpha"/>
<feOffset dy="6"/>
<feGaussianBlur stdDeviation="4.5"/>
<feColorMatrix type="matrix" values="0 0 0 0 0 0 0 0 0 0 0 0 0 0 0 0 0 0 0.161 0"/>
<feBlend mode="normal" in2="BackgroundImageFix" result="effect1_dropShadow_4327_108820"/>
<feBlend mode="normal" in="SourceGraphic" in2="effect1_dropShadow_4327_108820" result="shape"/>
</filter>
</defs>
</svg>
