<svg width="64" height="76" viewBox="0 0 64 76" fill="none" xmlns="http://www.w3.org/2000/svg">
<g filter="url(#filter0_d_3055_347555)">
<path d="M54 25.7484C54 41.2054 34.8019 61 31.5003 61C26.9392 61 9 41.2033 9 25.7484C9 22.761 9.58198 19.8029 10.7127 17.0428C11.8435 14.2828 13.5009 11.7751 15.5902 9.6627C17.6796 7.5503 20.16 5.87465 22.8898 4.73147C25.6197 3.58828 28.5455 2.99993 31.5003 3C37.4676 3 43.1905 5.39667 47.41 9.66283C51.6295 13.929 54 19.7151 54 25.7484Z" fill="white"/>
</g>
<path d="M31.3987 58.705C29.8884 58.2786 25.0911 54.3834 20.0777 47.4624C14.4617 39.7089 11.2412 31.7954 11.2412 25.7502C11.2474 20.32 13.3836 15.114 17.1813 11.2743C20.979 7.43461 26.1281 5.27476 31.4989 5.26855C36.8697 5.27476 42.0187 7.43461 45.8164 11.2743C49.6142 15.114 51.7504 20.32 51.7566 25.7502C51.7566 33.6919 46.0952 42.5397 42.7203 47.1059C37.7938 53.7737 32.8991 58.0526 31.3987 58.705Z" fill="#FFC217"/>
<path d="M21.2411 27.2804C21.2473 26.9182 21.3257 26.5609 21.4717 26.2287C21.6177 25.8965 21.8285 25.5961 22.0921 25.3445C22.3556 25.0929 22.6668 24.8952 23.0077 24.7626C23.3486 24.63 23.7126 24.5651 24.0789 24.5717C24.4426 24.5658 24.8039 24.6315 25.1417 24.7649C25.4795 24.8984 25.7871 25.0969 26.0466 25.3489C26.3061 25.601 26.5123 25.9015 26.6532 26.2331C26.7942 26.5646 26.867 26.9206 26.8675 27.2802L26.8674 30.0127C26.8796 31.1976 27.3644 32.3298 28.2162 33.1634C29.0681 33.9969 30.2182 34.4645 31.4168 34.4645C32.6154 34.4644 33.7656 33.9968 34.6175 33.1632C35.4694 32.3296 35.9542 31.1974 35.9665 30.0125L35.9666 27.28C35.9728 26.9179 36.0512 26.5606 36.1972 26.2284C36.3432 25.8963 36.554 25.5958 36.8175 25.3443C37.081 25.0927 37.3921 24.895 37.733 24.7623C38.0739 24.6297 38.4378 24.5648 38.8041 24.5713C39.1678 24.5655 39.529 24.6312 39.8668 24.7647C40.2045 24.8981 40.5121 25.0967 40.7715 25.3487C41.031 25.6007 41.2371 25.9013 41.378 26.2328C41.5189 26.5643 41.5917 26.9202 41.5922 27.2798L41.5921 30.0123C41.5276 32.638 40.4273 35.1348 38.526 36.9694C36.6248 38.804 34.0733 39.831 31.4166 39.831C28.7599 39.8311 26.2085 38.8042 24.3073 36.9698C22.4061 35.1353 21.3059 32.6386 21.2416 30.0129L21.2411 27.2804Z" fill="#16160F"/>
<path d="M26.9086 20.515C26.9086 21.0688 26.7423 21.6102 26.4309 22.0706C26.1195 22.5311 25.6769 22.8899 25.1591 23.1019C24.6413 23.3138 24.0716 23.3692 23.5219 23.2612C22.9723 23.1531 22.4674 22.8865 22.0711 22.4949C21.6748 22.1033 21.4049 21.6044 21.2956 21.0613C21.1863 20.5181 21.2424 19.9551 21.4568 19.4435C21.6713 18.9319 22.0345 18.4945 22.5004 18.1868C22.9664 17.8791 23.5143 17.7148 24.0747 17.7148C24.8263 17.7148 25.5471 18.0098 26.0785 18.535C26.61 19.0601 26.9086 19.7724 26.9086 20.515Z" fill="#16160F"/>
<path d="M41.5776 20.3471C41.5775 20.9009 41.4113 21.4422 41.0999 21.9027C40.7885 22.3631 40.3459 22.722 39.8281 22.9339C39.3103 23.1458 38.7405 23.2013 38.1909 23.0932C37.6412 22.9852 37.1363 22.7185 36.74 22.3269C36.3437 21.9354 36.0739 21.4365 35.9645 20.8933C35.8552 20.3502 35.9113 19.7872 36.1258 19.2755C36.3402 18.7639 36.7034 18.3266 37.1694 18.0188C37.6354 17.7111 38.1832 17.5469 38.7437 17.5468C39.4953 17.5468 40.216 17.8419 40.7475 18.367C41.2789 18.8922 41.5775 19.6044 41.5776 20.3471Z" fill="#16160F"/>
<defs>
<filter id="filter0_d_3055_347555" x="0" y="0" width="64" height="76" filterUnits="userSpaceOnUse" color-interpolation-filters="sRGB">
<feFlood flood-opacity="0" result="BackgroundImageFix"/>
<feColorMatrix in="SourceAlpha" type="matrix" values="0 0 0 0 0 0 0 0 0 0 0 0 0 0 0 0 0 0 127 0" result="hardAlpha"/>
<feOffset dy="6"/>
<feGaussianBlur stdDeviation="4.5"/>
<feColorMatrix type="matrix" values="0 0 0 0 0 0 0 0 0 0 0 0 0 0 0 0 0 0 0.161 0"/>
<feBlend mode="normal" in2="BackgroundImageFix" result="effect1_dropShadow_3055_347555"/>
<feBlend mode="normal" in="SourceGraphic" in2="effect1_dropShadow_3055_347555" result="shape"/>
</filter>
</defs>
</svg>
