<svg width="16" height="16" viewBox="0 0 16 16" fill="none" xmlns="http://www.w3.org/2000/svg">
<path d="M5.00391 10.4719C4.53988 10.4719 4.16348 10.8478 4.16341 11.3118C4.16341 11.3275 4.16452 11.3432 4.16536 11.3586C4.16725 11.3743 4.16887 11.3901 4.16927 11.4062C4.21615 11.8258 4.57172 12.1523 5.00391 12.1523C5.38422 12.1522 5.70504 11.8993 5.80859 11.5527C5.79062 11.5011 5.7793 11.4463 5.7793 11.3886C5.7793 11.3099 5.79836 11.2361 5.83073 11.1698C5.76314 10.7736 5.41944 10.472 5.00391 10.4719ZM10.6836 10.4719C10.2196 10.4719 9.84317 10.8478 9.8431 11.3118C9.84697 11.3368 9.84961 11.3624 9.84961 11.3886C9.84961 11.394 9.84848 11.3995 9.84831 11.4049C9.89456 11.8252 10.251 12.1522 10.6836 12.1523C11.1477 12.1523 11.5241 11.7758 11.5241 11.3118C11.524 10.8478 11.1476 10.4719 10.6836 10.4719ZM9.74479 8.66528V5.66724C9.73545 5.62903 9.72917 5.58918 9.72917 5.5481C9.72919 5.50691 9.73538 5.46724 9.74479 5.42896V4.53052C9.74479 4.43897 9.72709 4.34817 9.69206 4.26359C9.65705 4.17909 9.60567 4.10238 9.54102 4.03768C9.47628 3.97294 9.39904 3.92167 9.31445 3.88664C9.25111 3.86041 9.18452 3.84323 9.11654 3.83651L9.04818 3.83325H3.19727C3.01237 3.83325 2.83517 3.90694 2.70443 4.03768C2.57368 4.16842 2.5 4.34562 2.5 4.53052V10.2219C2.50002 10.4068 2.5737 10.584 2.70443 10.7148C2.83516 10.8454 3.01241 10.9192 3.19727 10.9192H3.20703C3.38706 10.0917 4.12244 9.47192 5.00391 9.47192C5.87437 9.47196 6.60158 10.0766 6.79297 10.8886H8.89453C9.08593 10.0765 9.81311 9.47194 10.6836 9.47192C11.5459 9.47192 12.2672 10.0653 12.4668 10.8658H13.5156V8.25708L13.5078 8.16528C13.4927 8.07487 13.4563 7.98886 13.401 7.91463L12.0573 6.12752L12.0247 6.09432C12.0126 6.08447 11.9992 6.07581 11.985 6.06893C11.9569 6.05529 11.9258 6.04807 11.8945 6.0481H10.7448V8.66528C10.7448 8.94143 10.5209 9.16528 10.2448 9.16528C9.96878 9.16513 9.74479 8.94133 9.74479 8.66528ZM10.7448 5.0481H11.8939L12.0299 5.05591C12.1657 5.07121 12.2984 5.10988 12.4219 5.16984C12.5452 5.22974 12.6573 5.30975 12.7533 5.40682L12.8438 5.50968L12.8503 5.51815L14.2005 7.31372L14.2012 7.31502L14.2728 7.41854C14.4294 7.66713 14.5137 7.95574 14.5156 8.25122V11.246C14.5156 11.4104 14.4502 11.568 14.334 11.6842C14.2178 11.8004 14.0602 11.8658 13.8958 11.8658H12.4388C12.2037 12.6114 11.5069 13.1523 10.6836 13.1523C9.86882 13.1523 9.17893 12.6223 8.93685 11.8886H6.75C6.50787 12.6221 5.81859 13.1522 5.00391 13.1523C4.2006 13.1523 3.51931 12.6368 3.26823 11.9192H3.19727C2.74719 11.9192 2.31567 11.74 1.9974 11.4218C1.67913 11.1035 1.50002 10.672 1.5 10.2219V4.53052C1.5 4.0804 1.67912 3.64893 1.9974 3.33065C2.31567 3.01237 2.74715 2.83325 3.19727 2.83325H9.04818L9.21419 2.84172C9.37995 2.85804 9.54282 2.89821 9.69727 2.96216C9.90318 3.04745 10.0905 3.17305 10.248 3.33065C10.4055 3.48817 10.5306 3.675 10.6159 3.88078C10.7012 4.08669 10.7448 4.30764 10.7448 4.53052V5.0481Z" fill="currentColor"/>
</svg>
