<svg width="20" height="20" viewBox="0 0 20 20" fill="none" xmlns="http://www.w3.org/2000/svg">
<g clip-path="url(#clip0_2751_36520)">
<path d="M10 7.08337V10.4167M10 12.5V12.5084" stroke="currentColor" stroke-width="2.25" stroke-linecap="round" stroke-linejoin="round"/>
<path d="M4.16666 15.8334H15.8333C16.1053 15.8315 16.3726 15.763 16.612 15.6341C16.8514 15.5051 17.0556 15.3196 17.2068 15.0936C17.3581 14.8676 17.4517 14.608 17.4795 14.3375C17.5074 14.067 17.4686 13.7938 17.3667 13.5417L11.45 3.33337C11.3059 3.07286 11.0946 2.85573 10.8381 2.70452C10.5817 2.55332 10.2894 2.47357 9.99166 2.47357C9.69394 2.47357 9.40166 2.55332 9.1452 2.70452C8.88874 2.85573 8.67746 3.07286 8.53333 3.33337L2.61666 13.5417C2.51661 13.788 2.47694 14.0547 2.50095 14.3195C2.52497 14.5842 2.61197 14.8394 2.75471 15.0637C2.89744 15.288 3.09175 15.4749 3.32143 15.6088C3.55111 15.7427 3.80949 15.8197 4.075 15.8334" stroke="currentColor" stroke-width="2.25" stroke-linecap="round" stroke-linejoin="round"/>
</g>
<defs>
<clipPath id="clip0_2751_36520">
<rect width="20" height="20" fill="white"/>
</clipPath>
</defs>
</svg>
