<svg width="20" height="21" viewBox="0 0 20 21" fill="none" xmlns="http://www.w3.org/2000/svg">
<g clip-path="url(#clip0_2455_57003)">
<path d="M17.0849 3.2111C15.2048 1.33796 12.7048 0.30583 10.0412 0.304688C4.55249 0.304688 0.0857968 4.75031 0.0835994 10.2146C0.0829599 11.9613 0.541363 13.6663 1.41266 15.1693L0 20.3047L5.27864 18.9266C6.733 19.7163 8.37052 20.1324 10.0369 20.1331H10.0411H10.0412C15.529 20.1331 19.9964 15.6867 19.9987 10.2226C19.9996 7.57439 18.9648 5.08436 17.0849 3.2111ZM10.0412 18.4593H10.038C8.55262 18.4585 7.09604 18.0615 5.82556 17.3109L5.5232 17.1325L2.39075 17.9501L3.22707 14.9106L3.03008 14.5989C2.20154 13.2873 1.76415 11.7716 1.76477 10.2153C1.76659 5.6735 5.47914 1.97858 10.0443 1.97858C12.255 1.97949 14.3328 2.83741 15.8955 4.3943C17.4581 5.95118 18.318 8.02083 18.3174 10.2219C18.3155 14.7638 14.6028 18.4593 10.0412 18.4593Z" fill="#E0E0E0"/>
<path d="M0.457031 19.7344L1.80517 14.8336C0.973452 13.3993 0.536072 11.772 0.536597 10.1055C0.538778 4.89086 4.80148 0.648438 10.039 0.648438C12.581 0.64958 14.9669 1.63451 16.7607 3.42213C18.5549 5.20973 19.5424 7.58585 19.5414 10.1129C19.5392 15.3276 15.2762 19.5704 10.0394 19.5704C10.039 19.5704 10.0396 19.5704 10.0394 19.5704H10.0351C8.44487 19.5699 6.88228 19.1724 5.49444 18.4194L0.457031 19.7344Z" fill="url(#paint0_linear_2455_57003)"/>
<path fill-rule="evenodd" clip-rule="evenodd" d="M7.58252 6.00696C7.3983 5.59917 7.20433 5.59101 7.02907 5.58388C6.88571 5.57775 6.7216 5.57813 6.55774 5.57813C6.39376 5.57813 6.12728 5.63948 5.90194 5.88451C5.67646 6.12953 5.04102 6.72187 5.04102 7.92657C5.04102 9.1314 5.92243 10.2956 6.04529 10.4591C6.16828 10.6223 7.74676 13.1736 10.2466 14.1551C12.3242 14.9707 12.747 14.8085 13.198 14.7677C13.6489 14.7269 14.6531 14.1755 14.8581 13.6037C15.063 13.032 15.063 12.5419 15.0015 12.4395C14.9401 12.3375 14.7761 12.2762 14.5301 12.1538C14.2841 12.0314 13.075 11.4389 12.8495 11.3573C12.624 11.2756 12.46 11.2348 12.2961 11.48C12.1321 11.7249 11.661 12.2762 11.5175 12.4395C11.374 12.6031 11.2305 12.6236 10.9846 12.5011C10.7386 12.3783 9.94645 12.12 9.00676 11.2858C8.27561 10.6368 7.78199 9.83531 7.6385 9.59017C7.49501 9.34528 7.62312 9.21263 7.7465 9.09056C7.85693 8.98086 7.99248 8.80471 8.11547 8.66173C8.23819 8.51874 8.27919 8.4167 8.36118 8.25344C8.44317 8.08992 8.40218 7.94695 8.34068 7.8245C8.27919 7.70205 7.80121 6.49113 7.58252 6.00696Z" fill="white"/>
<path d="M17.004 3.1797C15.1454 1.32806 12.6741 0.3078 10.0412 0.306641C4.61547 0.306641 0.200047 4.70123 0.197866 10.1028C0.197227 11.8295 0.650366 13.5149 1.51166 15.0006L0.115234 20.077L5.33328 18.7148C6.77096 19.4954 8.38967 19.9068 10.0369 19.9074H10.0411H10.0412C15.466 19.9074 19.882 15.512 19.8844 10.1107C19.8853 7.4929 18.8623 5.03146 17.004 3.1797ZM10.0412 18.2528H10.038C8.56968 18.2521 7.12981 17.8596 5.87392 17.1177L5.57502 16.9412L2.47853 17.7495L3.30524 14.7449L3.11051 14.4368C2.29149 13.1403 1.85911 11.642 1.85975 10.1035C1.86154 5.61385 5.53147 1.96135 10.0443 1.96135C12.2296 1.96224 14.2835 2.81031 15.8283 4.34933C17.373 5.88835 18.223 7.93423 18.2224 10.1101C18.2204 14.5998 14.5504 18.2528 10.0412 18.2528Z" fill="white"/>
</g>
<defs>
<linearGradient id="paint0_linear_2455_57003" x1="9.99922" y1="19.7344" x2="9.99922" y2="0.648469" gradientUnits="userSpaceOnUse">
<stop stop-color="#20B038"/>
<stop offset="1" stop-color="#60D66A"/>
</linearGradient>
<clipPath id="clip0_2455_57003">
<rect width="20" height="20" fill="white" transform="translate(0 0.304688)"/>
</clipPath>
</defs>
</svg>
