<svg width="8" height="14" viewBox="0 0 8 14" fill="none" xmlns="http://www.w3.org/2000/svg">
<path d="M3.48565 13V1.90169L1.02341 4.4056L0.985652 4.4401C0.790598 4.60208 0.500366 4.59306 0.31573 4.41146C0.119075 4.21786 0.116448 3.90126 0.30987 3.70443L3.1113 0.85612L3.1126 0.855469L3.19984 0.77474C3.41284 0.598271 3.68175 0.5 3.96156 0.5C3.96765 0.500001 3.97372 0.501208 3.97979 0.501302C3.98175 0.501278 3.98369 0.500652 3.98565 0.500651C4.00451 0.500651 4.02333 0.502524 4.04164 0.504557C4.29213 0.521498 4.53015 0.615357 4.72263 0.77474L4.81052 0.855469L4.81182 0.85612L7.69008 3.78255L7.72393 3.82096C7.88235 4.01858 7.86852 4.30805 7.68422 4.48958C7.49965 4.67111 7.20935 4.68067 7.0143 4.51888L6.97654 4.48372L4.48565 1.95052V13C4.48562 13.2761 4.26177 13.5 3.98565 13.5C3.70967 13.4998 3.48569 13.276 3.48565 13Z" fill="#176CF7"/>
</svg>
